:SAMPLES-PER-SECOND 30
:FULLY-SPECIFIED
:DEGREES
503
root  -0.975479 38.4642 1.34776 -2.87585 -82.6329 -1.03857
RightUpLeg  7.12227 -15.1943 -23.301
RightLeg  0.743905 -1.69704 0.416529
RightFoot  4.34785 -3.89699 27.9804
RightToes  -6.40286e-010 0 -3.6325e-017
Spine  8.05406 0.160808 4.02151
Spine1  -2.07065 0.982331 -2.77029
HEad  -5.2429 -20.2329 1.18463
LeftShoulder1  2.6168 -5.88102 -21.5343
LeftArm  -2.13454 17.2104 -47.9442
LeftForeArm  5.8086 -12.0045 -11.1882
LeftHand  -0.660987 1.76625 21.0638
RightShoulder  1.30031 1.75633 18.2441
RightArm  -1.1865 -14.9467 51.6934
RightForeArm  18.0087 9.77317 12.7047
RightHand  -0.524975 -1.83303 -16.9704
LeftUpLeg  2.95979 16.2674 22.517
LeftLeg  -1.6226 -13.7783 1.4571
LeftFoot  2.95266 3.56047 -28.0238
LeftToes  -2.09187e-010 -4.93792e-011 -8.21189e-011
504
root  -1.01851 38.4676 1.35902 -3.245 -82.8321 -0.599854
RightUpLeg  7.08626 -15.2054 -23.353
RightLeg  0.633693 -1.53981 0.413871
RightFoot  4.3666 -3.90756 28.0212
RightToes  -6.40286e-010 0 -3.6325e-017
Spine  8.02526 0.170148 4.02547
Spine1  -2.19203 1.00071 -2.85812
HEad  -5.20728 -19.9812 0.862841
LeftShoulder1  2.63628 -5.98784 -21.4191
LeftArm  -2.00343 17.2627 -47.9817
LeftForeArm  5.75098 -12.1024 -11.1474
LeftHand  -0.681774 1.53528 20.4445
RightShoulder  1.30622 1.78186 18.2354
RightArm  -0.756556 -15.1414 51.8707
RightForeArm  17.6533 10.0214 12.6371
RightHand  -0.5059 -1.96724 -16.9767
LeftUpLeg  3.09249 16.2684 22.5053
LeftLeg  -1.67184 -13.5788 1.42318
LeftFoot  2.93258 3.55476 -28.0181
LeftToes  -2.09187e-010 -4.93792e-011 -8.21189e-011
505
root  -1.05864 38.4712 1.37615 -3.96887 -83.0806 0.187134
RightUpLeg  7.03023 -15.2531 -23.468
RightLeg  0.529941 -1.29061 0.422375
RightFoot  4.38965 -3.92254 28.0848
RightToes  -6.40286e-010 0 -3.6325e-017
Spine  8.02613 0.163638 4.05335
Spine1  -2.32756 1.01834 -3.0406
HEad  -5.15572 -19.7143 0.676949
LeftShoulder1  2.6483 -6.07017 -21.2985
LeftArm  -1.79661 17.3133 -47.9842
LeftForeArm  5.69394 -12.105 -11.1701
LeftHand  -0.69591 1.33276 19.8419
RightShoulder  1.31248 1.80074 18.2678
RightArm  -0.200855 -15.2762 52.0464
RightForeArm  17.3799 10.3433 12.5322
RightHand  -0.527246 -1.83564 -17.057
LeftUpLeg  3.23187 16.2249 22.4374
LeftLeg  -1.68092 -13.3074 1.39863
LeftFoot  2.91621 3.54914 -28.0061
LeftToes  -2.09187e-010 -4.93792e-011 -8.21189e-011
506
root  -1.09839 38.4744 1.39837 -5.05261 -83.3368 1.33887
RightUpLeg  6.9743 -15.3167 -23.6297
RightLeg  0.405273 -1.00522 0.423713
RightFoot  4.41757 -3.9453 28.193
RightToes  -6.40286e-010 0 -3.6325e-017
Spine  8.07968 0.118806 4.06515
Spine1  -2.53614 1.00123 -3.27693
HEad  -5.09678 -19.3096 0.606736
LeftShoulder1  2.63561 -6.07528 -21.1414
LeftArm  -1.43968 17.3845 -47.9929
LeftForeArm  5.54233 -12.0838 -11.2291
LeftHand  -0.685781 1.31547 19.476
RightShoulder  1.32561 1.83534 18.3602
RightArm  0.624999 -15.3575 52.1299
RightForeArm  16.9647 10.7303 12.4111
RightHand  -0.552053 -1.65217 -17.0054
LeftUpLeg  3.35681 16.1203 22.291
LeftLeg  -1.66891 -12.9501 1.4066
LeftFoot  2.89303 3.53794 -27.9646
LeftToes  -2.09187e-010 -4.93792e-011 -8.21189e-011
507
root  -1.14029 38.4775 1.4219 -6.29651 -83.6079 2.65076
RightUpLeg  6.91234 -15.3762 -23.7948
RightLeg  0.279945 -0.7028 0.413409
RightFoot  4.44242 -3.97037 28.3218
RightToes  -6.40286e-010 0 -3.6325e-017
Spine  8.14191 0.0715647 3.97808
Spine1  -2.75784 0.953429 -3.36855
HEad  -5.01768 -18.8301 0.515709
LeftShoulder1  2.61843 -6.04926 -21.0296
LeftArm  -1.23573 17.462 -48.0016
LeftForeArm  5.47209 -12.005 -11.3035
LeftHand  -0.671799 1.38885 19.4244
RightShoulder  1.34316 1.90185 18.3802
RightArm  1.46996 -15.3966 52.189
RightForeArm  16.4651 11.07 12.3095
RightHand  -0.548668 -1.62332 -16.7734
LeftUpLeg  3.50481 16.0142 22.1349
LeftLeg  -1.67609 -12.5611 1.4184
LeftFoot  2.85479 3.52146 -27.9109
LeftToes  -2.09187e-010 -4.93792e-011 -8.21189e-011
508
root  -1.18453 38.4803 1.44233 -7.21057 -83.933 3.5863
RightUpLeg  6.87157 -15.4097 -23.898
RightLeg  0.165613 -0.374918 0.404012
RightFoot  4.46529 -3.99299 28.4368
RightToes  -6.40286e-010 0 -3.6325e-017
Spine  8.20895 0.0680367 3.81411
Spine1  -2.92337 0.915237 -3.23497
HEad  -4.95525 -18.4194 0.327252
LeftShoulder1  2.63469 -6.09286 -21.0774
LeftArm  -1.33233 17.5575 -47.9419
LeftForeArm  5.67242 -11.8601 -11.37
LeftHand  -0.670948 1.40591 19.4806
RightShoulder  1.3592 1.98745 18.2753
RightArm  2.08885 -15.4011 52.2722
RightForeArm  15.9582 11.3138 12.2365
RightHand  -0.531954 -1.70696 -16.6224
LeftUpLeg  3.74016 16.0167 22.1146
LeftLeg  -1.68844 -12.2564 1.36948
LeftFoot  2.79307 3.499 -27.8552
LeftToes  -2.09187e-010 -4.93792e-011 -8.21189e-011
509
root  -1.23001 38.482 1.45728 -7.52625 -84.2983 3.85925
RightUpLeg  6.88848 -15.4124 -23.9202
RightLeg  0.0390164 -0.0406441 0.40683
RightFoot  4.49499 -4.01217 28.5164
RightToes  -6.40286e-010 0 -3.6325e-017
Spine  8.31241 0.0995441 3.66313
Spine1  -3.05125 0.903869 -3.02065
HEad  -4.95853 -18.0926 0.112965
LeftShoulder1  2.6767 -6.20553 -21.1996
LeftArm  -1.5176 17.6833 -47.8539
LeftForeArm  6.14133 -11.7016 -11.4207
LeftHand  -0.685922 1.28758 19.3518
RightShoulder  1.3695 2.05336 18.1564
RightArm  2.538 -15.3822 52.3367
RightForeArm  15.4294 11.5256 12.1661
RightHand  -0.521567 -1.79019 -16.6668
LeftUpLeg  4.03859 16.1365 22.2591
LeftLeg  -1.64885 -12.0794 1.25726
LeftFoot  2.70835 3.46811 -27.7774
LeftToes  -2.09187e-010 -4.93792e-011 -8.21189e-011
510
root  -1.27451 38.4825 1.46735 -7.62 -84.6493 3.91296
RightUpLeg  6.90574 -15.4082 -23.9102
RightLeg  -0.0884376 0.271836 0.415182
RightFoot  4.52412 -4.02444 28.5499
RightToes  -6.40286e-010 0 -3.6325e-017
Spine  8.42178 0.129355 3.55032
Spine1  -3.19049 0.904784 -2.8971
HEad  -4.98378 -17.7775 -0.0074874
LeftShoulder1  2.69825 -6.29404 -21.1688
LeftArm  -1.58799 17.7937 -47.8801
LeftForeArm  6.66882 -11.5615 -11.4729
LeftHand  -0.716378 1.03625 19.0631
RightShoulder  1.3723 2.07346 18.1128
RightArm  2.84543 -15.354 52.3741
RightForeArm  15.0526 11.7109 12.0934
RightHand  -0.517429 -1.8373 -16.7195
LeftUpLeg  4.27938 16.2382 22.4077
LeftLeg  -1.53886 -11.9075 1.16917
LeftFoot  2.61684 3.43449 -27.6905
LeftToes  -2.09187e-010 -4.93792e-011 -8.21189e-011
511
root  -1.3145 38.4834 1.47609 -8.06152 -84.9707 4.40466
RightUpLeg  6.7978 -15.4208 -23.9107
RightLeg  -0.155247 0.557621 0.413107
RightFoot  4.53741 -4.02824 28.5531
RightToes  -6.40286e-010 0 -3.6325e-017
Spine  8.45373 0.144448 3.45574
Spine1  -3.34193 0.907796 -2.90606
HEad  -4.95163 -17.4814 -0.0271801
LeftShoulder1  2.68694 -6.32415 -20.9559
LeftArm  -1.5458 17.8327 -48.0069
LeftForeArm  6.94211 -11.4561 -11.5313
LeftHand  -0.744637 0.818548 18.8852
RightShoulder  1.37024 2.06377 18.1145
RightArm  2.83009 -15.3133 52.4326
RightForeArm  15.0987 11.7675 12.056
RightHand  -0.518772 -1.83444 -16.687
LeftUpLeg  4.37169 16.207 22.403
LeftLeg  -1.39877 -11.5819 1.17738
LeftFoot  2.53364 3.40909 -27.6505
LeftToes  -2.09187e-010 -4.93792e-011 -8.21189e-011
512
root  -1.34944 38.4844 1.48762 -8.91394 -85.278 5.38989
RightUpLeg  6.55868 -15.4482 -23.9224
RightLeg  -0.143702 0.817967 0.398279
RightFoot  4.53925 -4.03228 28.5763
RightToes  -6.40286e-010 0 -3.6325e-017
Spine  8.3894 0.145372 3.38769
Spine1  -3.45652 0.907761 -2.98734
HEad  -4.9056 -17.2638 -0.0705667
LeftShoulder1  2.67729 -6.33991 -20.8045
LeftArm  -1.40692 17.8066 -48.0217
LeftForeArm  6.823 -11.4418 -11.5614
LeftHand  -0.741324 0.837038 18.8777
RightShoulder  1.36736 2.0538 18.1121
RightArm  2.52561 -15.2399 52.5105
RightForeArm  15.4207 11.691 12.0649
RightHand  -0.520923 -1.79917 -16.6927
LeftUpLeg  4.36226 16.0825 22.2751
LeftLeg  -1.27344 -11.1257 1.24997
LeftFoot  2.45745 3.39209 -27.6623
LeftToes  -2.09187e-010 -4.93792e-011 -8.21189e-011
513
root  -1.38581 38.4847 1.50072 -9.83289 -85.5484 6.41064
RightUpLeg  6.3682 -15.4744 -23.9482
RightLeg  -0.11926 1.04203 0.383428
RightFoot  4.5378 -4.04543 28.6618
RightToes  -6.40286e-010 0 -3.6325e-017
Spine  8.30172 0.124701 3.32244
Spine1  -3.46739 0.883008 -3.01216
HEad  -4.93972 -17.1001 -0.231546
LeftShoulder1  2.68939 -6.3537 -20.895
LeftArm  -1.15123 17.7518 -47.8203
LeftForeArm  6.54395 -11.566 -11.5244
LeftHand  -0.714376 0.996326 18.8406
RightShoulder  1.36311 2.04297 18.0817
RightArm  2.3975 -15.1428 52.571
RightForeArm  15.4524 11.6836 12.0557
RightHand  -0.519096 -1.82306 -16.7338
LeftUpLeg  4.39514 15.9846 22.1723
LeftLeg  -1.18334 -10.7441 1.30336
LeftFoot  2.38263 3.37251 -27.6513
LeftToes  -2.09187e-010 -4.93792e-011 -8.21189e-011
